<svg xmlns="http://www.w3.org/2000/svg" version="1.1" xmlns:xlink="http://www.w3.org/1999/xlink" xmlns:svgjs="http://svgjs.dev/svgjs" width="1000" height="999" viewBox="0 0 1000 999"><g transform="matrix(1,0,0,1,-0.215743440233382,-0.21552769679306039)"><svg viewBox="0 0 343 343" data-background-color="#ffffff" preserveAspectRatio="xMidYMid meet" height="999" width="1000" xmlns="http://www.w3.org/2000/svg" xmlns:xlink="http://www.w3.org/1999/xlink"><g id="tight-bounds" transform="matrix(1,0,0,1,0.0740000000000407,0.07400000000001228)"><svg viewBox="0 0 342.85155851775386 342.85155851775386" height="342.85155851775386" width="342.85155851775386"><g><svg></svg></g><g><svg viewBox="0 0 342.85155851775386 342.85155851775386" height="342.85155851775386" width="342.85155851775386"><g><path d="M0 171.426c0-94.676 76.75-171.426 171.426-171.426 94.676 0 171.426 76.75 171.426 171.426 0 94.676-76.75 171.426-171.426 171.426-94.676 0-171.426-76.75-171.426-171.426zM171.426 336.54c91.19 0 165.114-73.924 165.114-165.114 0-91.19-73.924-165.114-165.114-165.114-91.19 0-165.114 73.924-165.114 165.114 0 91.19 73.924 165.114 165.114 165.114z" data-fill-palette-color="tertiary" fill="#ea3c12" stroke="transparent"></path><ellipse rx="164.56874808852186" ry="164.56874808852186" cx="171.42577925887693" cy="171.42577925887693" fill="#ea3c12" stroke="transparent" stroke-width="0" fill-opacity="1" data-fill-palette-color="tertiary"></ellipse></g><g transform="matrix(1,0,0,1,64.84655864529837,79.80260997654756)"><svg viewBox="0 0 213.1584412271571 183.24633856465874" height="183.24633856465874" width="213.1584412271571"><g><svg viewBox="0 0 213.1584412271571 183.24633856465874" height="183.24633856465874" width="213.1584412271571"><g><svg viewBox="0 0 213.1584412271571 183.24633856465874" height="183.24633856465874" width="213.1584412271571"><g transform="matrix(1,0,0,1,0,113.25358871146167)"><svg viewBox="0 0 213.1584412271571 69.99274985319705" height="69.99274985319705" width="213.1584412271571"><g id="textblocktransform"><svg viewBox="0 0 213.1584412271571 69.99274985319705" height="69.99274985319705" width="213.1584412271571" id="textblock"><g><svg viewBox="0 0 213.1584412271571 69.99274985319705" height="69.99274985319705" width="213.1584412271571"><g transform="matrix(1,0,0,1,0,0)"><svg width="213.1584412271571" viewBox="2.25 -37.15999984741211 121.08000183105469 39.766666412353516" height="69.99274985319705" data-palette-color="#ffffff"><path d="M36.91-0.15L36.91-0.15Q36.67 0.1 36.38 0.15 36.08 0.2 35.79 0.2L35.79 0.2Q35.06 0.54 34.23 0.54L34.23 0.54Q33.69 0.24 33.64 0.34 33.59 0.44 33.45 0.54L33.45 0.54Q32.71 0.88 32.13 0.9 31.54 0.93 31.15 1.17L31.15 1.17Q30.76 0.88 30.74 0.32 30.71-0.24 30.62-0.63L30.62-0.63Q30.37-0.98 30.27-1.49 30.18-2 30.13-2.54 30.08-3.08 30-3.59 29.93-4.1 29.74-4.49L29.74-4.49Q29.69-4.74 29.71-4.93 29.74-5.13 29.64-5.37L29.64-5.37Q29.69-6.2 29.59-6.69 29.49-7.18 29.39-7.71L29.39-7.71Q29.35-8.01 29.35-8.37 29.35-8.74 29.05-8.94L29.05-8.94Q29.2-9.62 29.1-9.96 29-10.3 28.96-10.6L28.96-10.6Q28.91-10.99 28.91-11.45 28.91-11.91 28.81-12.3L28.81-12.3Q28.52-14.65 28.17-16.99 27.83-19.34 27.54-21.68L27.54-21.68Q27.25-21.44 27.12-20.95 27-20.46 26.9-20.07L26.9-20.07Q26.61-19.19 26.37-18.26 26.12-17.33 25.88-16.46L25.88-16.46Q25.78-16.06 25.71-15.55 25.63-15.04 25.49-14.65L25.49-14.65Q25-13.23 24.63-12.21 24.27-11.18 23.93-10.11L23.93-10.11Q23.83-9.52 23.73-8.98 23.63-8.45 23.54-7.91L23.54-7.91Q23.49-7.62 23.39-7.08 23.29-6.54 23.19-6.3L23.19-6.3Q23.1-6.05 23.02-5.96 22.95-5.86 23-5.62L23-5.62Q22.51-4.88 22.34-4 22.17-3.13 21.73-2.29L21.73-2.29Q21.73-1.71 21.29-1.27L21.29-1.27Q21.04-1.22 20.83-1.17 20.61-1.12 20.36-0.98L20.36-0.98Q20.12-1.07 19.8-1.1 19.48-1.12 19.19-1.12L19.19-1.12Q18.95-1.17 18.75-1.29 18.55-1.42 18.31-1.46L18.31-1.46Q18.07-1.76 17.77-1.98 17.48-2.2 17.19-2.44L17.19-2.44Q16.89-3.17 16.65-3.42L16.65-3.42Q16.5-3.96 16.26-4.42 16.02-4.88 15.92-5.47L15.92-5.47Q15.77-6.01 15.55-6.47 15.33-6.93 15.09-7.47L15.09-7.47Q14.99-7.81 14.87-8.13 14.75-8.45 14.6-8.79L14.6-8.79Q14.55-9.18 14.33-9.77 14.11-10.35 14.01-10.79L14.01-10.79Q14.01-10.84 13.84-11.3 13.67-11.77 13.5-12.3 13.33-12.84 13.16-13.28 12.99-13.72 12.94-13.77L12.94-13.77Q12.84-14.01 12.77-14.23 12.7-14.45 12.6-14.75L12.6-14.75Q12.4-15.38 12.11-16.04 11.82-16.7 11.52-17.29L11.52-17.29Q11.28-17.77 11.18-18.24 11.08-18.7 10.94-19.14L10.94-19.14Q10.84-19.38 10.77-19.58 10.69-19.78 10.6-20.02L10.6-20.02Q10.5-20.31 10.4-20.63 10.3-20.95 10.21-21.29L10.21-21.29Q9.96-21.19 9.99-20.87 10.01-20.56 9.96-20.31L9.96-20.31Q9.86-19.78 9.86-19.26 9.86-18.75 9.81-18.21L9.81-18.21Q9.72-17.63 9.62-17.09 9.52-16.55 9.47-16.02L9.47-16.02Q9.47-14.7 9.33-13.38L9.33-13.38Q9.23-12.21 9.08-11.01 8.94-9.81 8.89-8.54L8.89-8.54Q8.89-7.62 8.69-6.71 8.5-5.81 8.59-4.83L8.59-4.83Q8.5-4.64 8.5-4.54 8.5-4.44 8.5-4.25L8.5-4.25Q8.5-4 8.47-3.71 8.45-3.42 8.45-3.17L8.45-3.17Q8.45-2.73 8.54-2.59L8.54-2.59Q8.4-2.15 8.4-1.64 8.4-1.12 8.4-0.63L8.4-0.63Q8.3-0.44 8.28-0.24 8.25-0.05 8.11 0.15L8.11 0.15Q8.15 0.98 7.62 0.98L7.62 0.98Q7.47 0.98 7.3 0.9 7.13 0.83 7.03 0.68L7.03 0.68Q6.49 0.73 6.42 0.44 6.35 0.15 6.1 0.2L6.1 0.2Q5.52 0.44 5.44 0.34 5.37 0.24 5.13 0.29L5.13 0.29Q4.74-0.1 4.61-0.05 4.49 0 4.39 0L4.39 0Q3.96-0.15 3.91-0.07 3.86 0 3.71 0L3.71 0Q3.47-0.24 3.05-0.24 2.64-0.24 2.34-0.29L2.34-0.29Q2.29-0.49 2.27-0.66 2.25-0.83 2.25-1.07L2.25-1.07Q2.25-1.37 2.27-1.64 2.29-1.9 2.29-2.2L2.29-2.2Q2.29-2.44 2.27-2.71 2.25-2.98 2.25-3.32L2.25-3.32Q2.25-3.66 2.29-3.98 2.34-4.3 2.34-4.69L2.34-4.69Q2.34-4.83 2.29-4.96 2.25-5.08 2.25-5.27L2.25-5.27Q2.54-5.91 2.51-6.27 2.49-6.64 2.54-6.98L2.54-6.98Q2.64-7.81 2.71-8.62 2.78-9.42 2.88-10.25L2.88-10.25Q2.88-11.62 2.95-12.52 3.03-13.43 3.17-14.36L3.17-14.36Q3.27-14.79 3.34-15.19 3.42-15.58 3.52-16.02L3.52-16.02Q3.61-16.75 3.64-17.55 3.66-18.36 3.76-19.14L3.76-19.14Q3.86-20.36 4-21.56 4.15-22.75 4.25-23.93L4.25-23.93Q4.35-24.85 4.47-25.76 4.59-26.66 4.59-27.49L4.59-27.49Q4.59-27.93 4.71-28.61 4.83-29.3 4.88-29.79L4.88-29.79Q4.98-30.96 5.05-32.08 5.13-33.2 5.13-34.33L5.13-34.33 5.13-34.86Q5.13-34.96 5.22-35.06 5.32-35.16 5.32-35.4L5.32-35.4Q5.32-35.84 5.54-36.01 5.76-36.18 5.91-36.57L5.91-36.57Q6.15-36.57 6.47-36.52 6.79-36.47 6.93-36.23L6.93-36.23Q7.28-36.33 7.62-36.33 7.96-36.33 8.2-36.57L8.2-36.57Q8.5-36.57 8.64-36.43 8.79-36.28 9.03-36.18L9.03-36.18Q9.23-36.28 9.42-36.35 9.62-36.43 9.81-36.52L9.81-36.52Q9.96-36.43 10.03-36.3 10.11-36.18 10.25-36.13L10.25-36.13Q10.99-36.33 11.23-36.18L11.23-36.18Q11.33-35.99 11.35-35.79 11.38-35.6 11.43-35.4L11.43-35.4Q11.91-34.91 12.06-34.3 12.21-33.69 12.6-33.2L12.6-33.2Q12.7-32.91 12.82-32.62 12.94-32.32 13.04-31.93L13.04-31.93 13.18-31.35Q13.38-30.86 13.67-30.18L13.67-30.18Q13.92-29.25 14.11-28.27 14.31-27.29 14.75-26.46L14.75-26.46Q14.79-26.17 14.92-25.76 15.04-25.34 15.14-25.05L15.14-25.05Q15.48-24.22 15.84-23.41 16.21-22.61 16.5-21.68L16.5-21.68Q16.8-20.75 17.02-19.78 17.24-18.8 17.58-17.87L17.58-17.87Q17.87-16.99 18.02-16.6 18.16-16.21 18.41-15.82L18.41-15.82Q18.41-15.67 18.48-15.33 18.55-14.99 18.7-14.62 18.85-14.26 18.99-13.94 19.14-13.62 19.29-13.57L19.29-13.57Q19.43-13.67 19.46-13.87 19.48-14.06 19.63-14.21L19.63-14.21Q19.68-14.75 19.8-15.53 19.92-16.31 20.17-16.8L20.17-16.8Q20.17-17.04 20.29-17.7 20.41-18.36 20.61-19.12 20.8-19.87 20.97-20.51 21.14-21.14 21.29-21.29L21.29-21.29Q21.39-21.92 21.46-22.07 21.53-22.22 21.63-22.31L21.63-22.31Q21.68-22.71 21.83-23.05 21.97-23.39 22.02-23.78L22.02-23.78Q22.12-24.61 22.27-25.15 22.41-25.68 22.66-26.46L22.66-26.46Q22.85-27.15 23.02-27.86 23.19-28.56 23.44-29.25L23.44-29.25Q24.02-31.1 24.49-32.54 24.95-33.98 25.63-35.35L25.63-35.35Q25.78-35.79 25.88-35.89 25.98-35.99 26.07-36.08L26.07-36.08Q26.46-36.23 26.88-36.23 27.29-36.23 27.73-36.18L27.73-36.18Q28.22-36.38 28.47-36.62L28.47-36.62Q28.66-36.38 29.05-36.38L29.05-36.38Q29.54-36.38 29.74-36.67L29.74-36.67Q29.93-36.57 30.05-36.62 30.18-36.67 30.42-36.57L30.42-36.57Q30.52-36.67 30.66-36.79 30.81-36.91 30.96-36.91L30.96-36.91Q31.35-36.43 31.57-36.16 31.79-35.89 31.88-35.55L31.88-35.55Q32.03-35.11 32.06-34.59 32.08-34.08 32.32-33.64L32.32-33.64Q32.28-33.01 32.4-31.71 32.52-30.42 32.69-28.98 32.86-27.54 33.06-26.32 33.25-25.1 33.4-24.8L33.4-24.8Q33.35-24.17 33.45-23.73 33.54-23.29 33.54-22.85L33.54-22.85Q33.54-22.71 33.59-22.24 33.64-21.78 33.69-21.26 33.74-20.75 33.81-20.29 33.89-19.82 33.94-19.63L33.94-19.63Q33.94-18.75 34.23-18.26L34.23-18.26Q34.47-17.04 34.64-15.82 34.81-14.6 34.96-13.33L34.96-13.33Q35.06-12.7 35.08-12.11 35.11-11.52 35.21-10.89L35.21-10.89Q35.25-10.64 35.33-10.4 35.4-10.16 35.45-9.91L35.45-9.91Q35.55-9.42 35.6-8.98 35.64-8.54 35.74-8.11L35.74-8.11Q35.79-7.86 35.89-7.59 35.99-7.32 35.89-7.03L35.89-7.03Q35.99-6.69 35.96-6.3 35.94-5.91 36.13-5.62L36.13-5.62Q36.13-4.59 36.28-3.81L36.28-3.81Q36.33-3.22 36.57-2.64L36.57-2.64Q36.67-2.05 36.74-1.42 36.82-0.78 36.91-0.15ZM64.84-19.38L64.84-19.38Q64.74-19.19 64.65-19.02 64.55-18.85 64.5-18.65L64.5-18.65Q64.69-18.46 64.87-18.24 65.04-18.02 65.04-17.77L65.04-17.77Q65.04-17.58 64.96-17.41 64.89-17.24 64.94-17.09L64.94-17.09Q64.74-16.75 64.52-16.46 64.3-16.16 64.21-15.82L64.21-15.82Q64.01-15.63 63.89-15.43 63.77-15.23 63.67-15.04L63.67-15.04Q63.43-14.94 63.35-14.72 63.28-14.5 63.08-14.36L63.08-14.36Q63.03-14.16 62.6-13.43 62.16-12.7 61.62-11.87 61.08-11.04 60.59-10.25 60.1-9.47 59.91-9.23L59.91-9.23Q59.81-8.98 59.69-8.84 59.57-8.69 59.42-8.5L59.42-8.5Q59.32-8.35 59.27-8.18 59.23-8.01 59.13-7.91L59.13-7.91Q59.03-7.71 58.91-7.57 58.79-7.42 58.69-7.18L58.69-7.18Q58.2-6.54 57.71-5.66 57.22-4.79 56.78-4.1L56.78-4.1Q56.54-3.71 56.32-3.32 56.1-2.93 55.86-2.54L55.86-2.54Q55.61-2.15 55.37-1.81 55.12-1.46 54.88-1.07L54.88-1.07Q54.49-0.78 54.2-0.37 53.9 0.05 53.51 0.34L53.51 0.34Q52.88 0.34 52.73-0.24L52.73-0.24Q52.1-0.39 52.1-0.24 52.1-0.1 52.1 0L52.1 0Q51.9 0.1 51.83 0.29 51.76 0.49 51.56 0.59L51.56 0.59Q51.17 0.49 50.9 0.27 50.63 0.05 50.14 0.1L50.14 0.1Q49.95-0.2 49.7-0.42 49.46-0.63 49.27-0.88L49.27-0.88Q49.17-1.17 49-1.37 48.83-1.56 48.68-1.76L48.68-1.76Q48.53-2 48.39-2.2 48.24-2.39 48.09-2.59L48.09-2.59Q47.75-3.03 47.43-3.44 47.12-3.86 46.87-4.3L46.87-4.3Q46.48-4.88 46.12-5.49 45.75-6.1 45.36-6.69L45.36-6.69Q45.16-6.98 44.97-7.28 44.77-7.57 44.63-7.86L44.63-7.86Q44.53-8.11 44.36-8.45 44.19-8.79 43.94-8.89L43.94-8.89Q43.85-9.28 43.6-9.47 43.36-9.67 43.11-9.96L43.11-9.96Q42.77-10.35 42.48-10.82 42.19-11.28 41.89-11.77L41.89-11.77Q40.92-13.13 40.06-14.45 39.21-15.77 38.38-17.19L38.38-17.19Q38.62-17.97 38.62-18.36 38.62-18.75 38.86-18.99L38.86-18.99Q38.86-19.19 38.96-19.58L38.96-19.58Q39.6-20.65 40.18-21.53L40.18-21.53Q40.72-22.36 40.94-22.9 41.16-23.44 41.4-24.02L41.4-24.02Q41.65-24.17 41.79-24.39 41.94-24.61 42.19-24.8L42.19-24.8Q42.28-25.34 42.62-25.71 42.97-26.07 43.06-26.61L43.06-26.61Q43.5-26.95 43.55-27.39L43.55-27.39Q44.19-27.83 44.33-28.56L44.33-28.56Q44.72-28.96 44.99-29.44 45.26-29.93 45.51-30.47L45.51-30.47Q46.09-30.96 46.43-31.74L46.43-31.74Q46.73-31.93 46.87-32.28 47.02-32.62 47.26-32.86L47.26-32.86Q47.65-33.5 47.87-33.91 48.09-34.33 48.34-34.77L48.34-34.77Q48.68-34.77 48.78-35.01 48.87-35.25 49.17-35.21L49.17-35.21Q49.17-35.64 49.41-35.99L49.41-35.99Q49.51-36.04 49.7-36.11 49.9-36.18 49.9-36.28L49.9-36.28Q49.8-36.87 49.95-36.96 50.1-37.06 50.19-37.16L50.19-37.16Q50.73-37.06 50.93-37.01 51.12-36.96 51.56-36.67L51.56-36.67Q52.05-36.67 52.24-36.47 52.44-36.28 52.68-36.18L52.68-36.18Q52.88-35.99 53-35.79 53.12-35.6 53.37-35.5L53.37-35.5Q53.76-34.96 54.2-34.33 54.64-33.69 55.03-33.15L55.03-33.15Q55.56-32.42 56.13-31.76 56.69-31.1 57.18-30.32L57.18-30.32Q57.32-30.08 57.71-29.47 58.1-28.86 58.59-28.17 59.08-27.49 59.47-26.93 59.86-26.37 60.01-26.27L60.01-26.27Q60.15-26.03 60.64-25.34 61.13-24.66 61.69-23.9 62.25-23.14 62.79-22.46 63.33-21.78 63.52-21.58L63.52-21.58Q64.06-20.85 64.33-20.39 64.6-19.92 64.84-19.38ZM53.66-10.21L53.66-10.21Q54.2-10.94 54.49-11.52 54.78-12.11 55.08-12.7L55.08-12.7Q55.56-13.28 55.66-13.53 55.76-13.77 55.91-14.01L55.91-14.01Q56.3-14.6 56.71-15.19 57.13-15.77 57.37-16.46L57.37-16.46Q57.66-16.65 57.81-16.94 57.96-17.24 58.25-17.48L58.25-17.48Q57.96-18.51 57.57-19.07 57.18-19.63 56.78-20.17L56.78-20.17Q56.64-20.41 56.49-20.65 56.35-20.9 56.2-21.14L56.2-21.14Q56-21.29 55.88-21.44 55.76-21.58 55.61-21.73L55.61-21.73Q55.52-21.97 55.32-22.36L55.32-22.36Q55.12-22.61 54.93-22.8 54.73-23 54.59-23.29L54.59-23.29Q54.39-23.49 54.1-23.83 53.81-24.17 53.49-24.58 53.17-25 52.93-25.37 52.68-25.73 52.54-25.98L52.54-25.98Q52.44-26.22 52.37-26.39 52.29-26.56 52.19-26.76L52.19-26.76Q51.95-27.1 51.71-27.37 51.46-27.64 51.22-27.98L51.22-27.98Q51.07-27.88 50.95-27.86 50.83-27.83 50.73-27.73L50.73-27.73Q50.39-27.1 49.97-26.56 49.56-26.03 49.17-25.39L49.17-25.39Q48.83-24.8 48.48-24.19 48.14-23.58 47.8-23L47.8-23Q47.56-22.66 47.34-22.34 47.12-22.02 46.87-21.63L46.87-21.63Q46.63-21.29 46.46-20.92 46.29-20.56 46.04-20.21L46.04-20.21Q45.65-19.73 45.41-19.34 45.16-18.95 44.92-18.41L44.92-18.41Q45.07-18.12 45.38-17.6 45.7-17.09 46.04-16.58 46.38-16.06 46.65-15.63 46.92-15.19 46.97-15.04L46.97-15.04Q47.36-14.7 47.6-14.28 47.85-13.87 48.24-13.48L48.24-13.48Q48.44-13.09 48.68-12.79 48.92-12.5 49.17-12.16L49.17-12.16Q49.41-11.82 49.8-11.16 50.19-10.5 50.58-9.81 50.97-9.13 51.36-8.54 51.76-7.96 52-7.81L52-7.81Q52.49-8.35 52.81-9.01 53.12-9.67 53.66-10.21ZM84.03-36.43L84.03-36.43Q84.81-36.52 85.22-36.3 85.64-36.08 86.08-36.04L86.08-36.04Q86.32-35.99 86.59-36.01 86.86-36.04 87.15-36.04L87.15-36.04Q87.79-36.04 88.15-35.89 88.52-35.74 88.91-35.25L88.91-35.25Q89.01-35.16 89.18-34.99 89.35-34.81 89.35-34.67L89.35-34.67Q89.35-34.28 89.16-33.98 88.96-33.69 88.96-33.15L88.96-33.15Q88.96-32.32 89.16-31.52 89.35-30.71 89.4-29.88L89.4-29.88Q89.64-26.86 89.67-23.8 89.69-20.75 89.69-17.77L89.69-17.77Q89.69-17.38 89.67-17.07 89.64-16.75 89.45-16.5L89.45-16.5 89.45-15.87Q89.4-14.6 89.5-13.31 89.59-12.01 89.59-10.74L89.59-10.74Q89.59-9.62 89.47-8.5 89.35-7.37 89.35-6.2L89.35-6.2Q89.35-5.13 89.5-4.1 89.64-3.08 89.64-2L89.64-2Q89.4-1.56 89.35-1.32 89.3-1.07 89.16-0.88L89.16-0.88Q89.01-0.78 88.84-0.83 88.67-0.88 88.57-0.73L88.57-0.73Q88.33-0.44 88.23-0.05 88.13 0.34 87.74 0.59L87.74 0.59Q87.64 1.27 87.23 1.64 86.81 2 86.62 2.59L86.62 2.59Q86.03 2.64 85.81 2.54 85.59 2.44 85.35 2.34L85.35 2.34Q85.3 1.51 85.37 1.15 85.44 0.78 85.44 0.39L85.44 0.39Q85.44-0.1 85.2-0.34 84.96-0.59 84.86-0.98L84.86-0.98Q84.32-1.32 84.13-1.44 83.93-1.56 83.78-1.76L83.78-1.76Q83.49-2.15 83.3-2.59 83.1-3.03 82.86-3.42L82.86-3.42Q82.17-4.54 81.46-5.71 80.76-6.88 79.93-8.01L79.93-8.01Q79.78-8.25 79.58-8.45 79.39-8.64 79.24-8.89L79.24-8.89Q78.41-10.21 77.68-11.57 76.95-12.94 75.97-14.16L75.97-14.16Q75.58-14.65 75.39-15.26 75.19-15.87 74.8-16.31L74.8-16.31Q74.75-16.06 74.75-15.77 74.75-15.48 74.75-15.23L74.75-15.23Q74.75-13.57 74.82-11.94 74.9-10.3 74.9-8.64L74.9-8.64Q74.9-8.3 74.82-8.03 74.75-7.76 74.75-7.42L74.75-7.42Q74.75-6.93 74.8-6.49 74.85-6.05 74.85-5.62L74.85-5.62Q74.85-5.08 74.82-4.59 74.8-4.1 74.75-3.61L74.75-3.61Q74.65-2.98 74.51-2.42 74.36-1.86 74.36-1.27L74.36-1.27Q74.36-0.93 74.43-0.63 74.51-0.34 74.51-0.1L74.51-0.1Q74.16 0.44 73.65 0.44 73.14 0.44 72.8 0.83L72.8 0.83Q72.5 0.78 72.33 0.88 72.16 0.98 72.02 0.98L72.02 0.98Q71.82 0.98 71.7 0.93 71.58 0.88 71.43 0.88L71.43 0.88Q71.19 0.88 70.94 1.12 70.7 1.37 70.45 1.37L70.45 1.37Q70.31 1.37 69.94 1.17 69.58 0.98 69.16 0.71 68.75 0.44 68.4 0.17 68.06-0.1 68.06-0.24L68.06-0.24Q68.01-0.49 68.01-0.93L68.01-0.93Q68.01-1.51 68.09-2.08 68.16-2.64 68.26-3.22L68.26-3.22Q68.4-4.88 68.4-6.52 68.4-8.15 68.4-9.81L68.4-9.81Q68.4-10.5 68.43-11.18 68.45-11.87 68.45-12.55L68.45-12.55Q68.45-14.16 68.33-15.8 68.21-17.43 68.21-19.04L68.21-19.04Q68.21-20.17 68.31-21.26 68.4-22.36 68.4-23.44L68.4-23.44Q68.4-24.27 68.35-25.05 68.31-25.83 68.31-26.66L68.31-26.66Q68.26-27.2 68.31-27.81 68.35-28.42 68.35-28.96L68.35-28.96Q68.35-29.59 68.18-30.15 68.01-30.71 68.01-31.2L68.01-31.2Q68.01-31.49 68.13-31.76 68.26-32.03 68.26-32.32L68.26-32.32Q68.26-32.71 68.13-33.11 68.01-33.5 68.01-33.89L68.01-33.89Q68.01-34.28 68.11-34.62 68.21-34.96 68.21-35.35L68.21-35.35Q68.89-35.69 69.43-35.69L69.43-35.69Q69.97-35.69 70.21-35.3L70.21-35.3Q70.21-34.42 70.31-33.96 70.41-33.5 70.45-33.01L70.45-33.01Q70.45-32.71 70.43-32.32 70.41-31.93 70.45-31.57 70.5-31.2 70.67-30.96 70.84-30.71 71.28-30.71L71.28-30.71Q71.38-30.47 71.53-30.27 71.67-30.08 71.72-29.79L71.72-29.79Q72.02-29.98 72.07-30.32 72.11-30.66 72.07-30.96L72.07-30.96Q72.31-30.86 72.5-30.88 72.7-30.91 72.9-30.81L72.9-30.81Q72.99-30.13 73.14-29.61 73.29-29.1 73.24-28.42L73.24-28.42Q74.21-27.69 74.92-26.34 75.63-25 76.26-23.93L76.26-23.93Q76.61-23.39 77.07-22.92 77.53-22.46 77.78-21.83L77.78-21.83Q78.17-21.58 78.41-21.19 78.66-20.8 78.85-20.41L78.85-20.41Q79.83-18.7 81-17.09 82.17-15.48 83.44-13.92L83.44-13.92Q83.49-14.26 83.49-14.58 83.49-14.89 83.49-15.23L83.49-15.23 83.44-19.63Q83.44-20.02 83.42-20.36 83.39-20.7 83.34-21.09L83.34-21.09Q83.25-22.36 83.3-23.58 83.34-24.8 83.3-26.07L83.3-26.07Q83.2-27.39 83.17-28.76 83.15-30.13 83.05-31.49L83.05-31.49Q83-32.32 82.95-33.15 82.91-33.98 82.91-34.81L82.91-34.81Q82.91-35.84 83.1-36.67L83.1-36.67Q83.2-36.77 83.32-36.84 83.44-36.91 83.64-36.91L83.64-36.91Q83.93-36.91 84.03-36.43ZM103.36-33.2L103.36-33.2Q103.36-32.76 103.07-32.54 102.78-32.32 102.53-31.98L102.53-31.98Q102.04-31.54 101.68-31.08 101.31-30.62 100.82-30.18L100.82-30.18Q100.63-29.98 100.29-29.66 99.94-29.35 99.58-29.03 99.21-28.71 98.85-28.47 98.48-28.22 98.23-28.22L98.23-28.22Q97.84-28.22 97.23-28.49 96.62-28.76 96.18-28.86L96.18-28.86Q95.84-28.91 95.57-28.93 95.31-28.96 95.06-29.2L95.06-29.2Q94.18-29.39 93.94-29.81 93.69-30.22 93.4-30.66L93.4-30.66Q93.4-30.86 93.55-30.91 93.69-30.96 93.79-31.1L93.79-31.1Q94.28-31.74 94.62-32.15 94.96-32.57 95.4-33.01L95.4-33.01Q96.23-33.74 96.99-34.52 97.75-35.3 98.58-35.99L98.58-35.99Q98.97-36.04 99.16-36.28 99.36-36.52 99.75-36.52L99.75-36.52Q100.14-36.52 100.41-36.28 100.68-36.04 100.9-35.72 101.12-35.4 101.34-35.08 101.56-34.77 101.85-34.62L101.85-34.62Q102.19-34.38 102.78-33.98 103.36-33.59 103.36-33.2ZM96.67-24.12L96.67-24.12Q97.01-23.93 97.18-23.61 97.36-23.29 97.7-23.14L97.7-23.14Q97.99-23 98.33-23 98.67-23 98.92-22.9L98.92-22.9Q99.11-22.8 99.21-22.66 99.31-22.51 99.41-22.36L99.41-22.36Q99.7-22.12 100.31-21.92 100.92-21.73 101.12-21.48L101.12-21.48Q101.46-21.04 101.63-20.36 101.8-19.68 101.9-18.92 101.99-18.16 102.04-17.41 102.09-16.65 102.19-16.11L102.19-16.11Q102.29-14.99 102.43-13.89 102.58-12.79 102.58-11.67L102.58-11.67Q102.58-10.55 102.48-9.38 102.39-8.2 102.39-7.08L102.39-7.08Q102.39-6.49 102.36-5.62 102.34-4.74 101.95-4.25L101.95-4.25Q101.9-4.05 101.9-3.56L101.9-3.56 101.9-2Q101.9-1.71 101.95-1.42 101.99-1.12 101.99-0.78L101.99-0.78Q101.99-0.24 101.7 0L101.7 0Q101.56-0.05 101.38-0.05 101.21-0.05 101.07-0.05L101.07-0.05Q100.53-0.05 100.29 0.15L100.29 0.15Q99.75 0.1 99.26 0.05 98.77 0 98.23 0L98.23 0Q97.4 0 96.43 0.24L96.43 0.24Q96.23-0.24 96.26-0.78 96.28-1.32 96.04-1.76L96.04-1.76Q95.99-1.9 95.96-2.03 95.94-2.15 95.94-2.29L95.94-2.29Q96.09-2.88 96.09-3.1 96.09-3.32 96.09-3.56L96.09-3.56Q96.09-4.25 96.04-4.96 95.99-5.66 96.09-6.35L96.09-6.35Q96.09-6.59 96.16-6.79 96.23-6.98 96.23-7.23L96.23-7.23Q96.23-7.47 96.14-7.57 96.04-7.67 96.04-7.81L96.04-7.81Q96.04-7.96 96.06-8.3 96.09-8.64 96.18-8.74L96.18-8.74Q96.18-9.13 96.21-9.5 96.23-9.86 96.23-10.21L96.23-10.21Q96.23-10.99 96.18-11.77 96.14-12.55 96.14-13.28L96.14-13.28Q96.14-13.62 96.09-13.72 96.04-13.82 95.99-13.87 95.94-13.92 95.84-13.94 95.74-13.96 95.7-14.11L95.7-14.11Q95.89-16.26 95.55-18.41 95.21-20.56 95.21-22.75L95.21-22.75Q95.21-23.1 95.31-23.27 95.4-23.44 95.55-23.54 95.7-23.63 95.82-23.75 95.94-23.88 95.99-24.12L95.99-24.12Q96.38-24.02 96.67-24.12ZM117.62-35.99L117.62-35.99Q117.71-35.79 117.84-35.72 117.96-35.64 118.01-35.4L118.01-35.4Q118.35-35.16 118.54-35.03 118.74-34.91 118.79-34.62L118.79-34.62Q119.23-34.28 119.3-34.18 119.37-34.08 119.42-33.94L119.42-33.94Q119.67-33.74 119.89-33.59 120.11-33.45 120.2-33.15L120.2-33.15Q120.6-32.81 120.69-32.62 120.79-32.42 120.84-32.18L120.84-32.18Q120.64-31.84 120.06-31.25 119.47-30.66 118.74-30 118.01-29.35 117.32-28.74 116.64-28.13 116.25-27.78L116.25-27.78Q116.15-27.59 116.01-27.44 115.86-27.29 115.76-27.1L115.76-27.1Q115.47-26.86 115.22-26.59 114.98-26.32 114.64-26.17L114.64-26.17Q114.15-25.49 113.27-24.83 112.39-24.17 112.1-23.54L112.1-23.54Q112.15-23.39 112.32-23.24 112.49-23.1 112.59-23L112.59-23Q112.98-22.61 113.52-22.29 114.05-21.97 114.44-21.58L114.44-21.58Q114.83-21.24 115.22-20.92 115.62-20.61 116.01-20.26L116.01-20.26Q116.2-20.07 116.49-19.68L116.49-19.68Q116.98-19.29 117.45-18.97 117.91-18.65 118.35-18.26L118.35-18.26Q119.28-17.48 120.16-16.67 121.03-15.87 122.01-15.09L122.01-15.09 122.4-14.65Q122.4-14.26 122.62-13.75 122.84-13.23 123.04-12.89L123.04-12.89Q122.94-12.4 123.06-12.28 123.18-12.16 123.28-12.06L123.28-12.06Q123.23-11.13 123.33-10.84L123.33-10.84Q122.5-10.11 121.79-9.5 121.08-8.89 120.55-8.3L120.55-8.3Q120.11-7.76 119.64-7.35 119.18-6.93 118.64-6.45L118.64-6.45Q118.35-6.05 118.15-5.91L118.15-5.91Q117.81-5.57 117.47-5.37L117.47-5.37Q116.88-4.83 116.32-4.35 115.76-3.86 115.22-3.37L115.22-3.37Q114.83-3.03 114.49-2.71 114.15-2.39 113.81-2L113.81-2Q113.52-1.71 113.15-1.32 112.78-0.93 112.39-0.68L112.39-0.68Q112.25-0.39 112-0.17 111.76 0.05 111.56 0.29L111.56 0.29Q111.22 0.49 110.93 0.68 110.63 0.88 110.24 1.07L110.24 1.07Q109.85 0.78 109.49 0.54 109.12 0.29 108.68 0.2L108.68 0.2Q108.39-0.05 108.24-0.29 108.1-0.54 107.7-0.63L107.7-0.63Q107.61-0.78 107.49-0.95 107.36-1.12 107.27-1.32L107.27-1.32Q106.68-1.37 106.34-2.05L106.34-2.05Q106.44-2.34 106.61-2.49 106.78-2.64 106.68-3.03L106.68-3.03Q106.97-3.52 107.39-3.88 107.8-4.25 108.19-4.64L108.19-4.64Q108.63-5.03 109-5.44 109.37-5.86 109.8-6.25L109.8-6.25Q110.05-6.49 110.29-6.71 110.54-6.93 110.83-7.18L110.83-7.18Q111.37-7.71 111.93-8.18 112.49-8.64 113.08-9.18L113.08-9.18Q113.86-9.96 114.69-10.67 115.52-11.38 116.2-12.26L116.2-12.26Q116.15-12.45 116.05-12.52 115.96-12.6 115.91-12.74L115.91-12.74Q115.13-13.48 114.37-14.18 113.61-14.89 112.73-15.43L112.73-15.43Q112.44-15.72 112.34-15.92L112.34-15.92Q111.46-16.55 110.66-17.33 109.85-18.12 108.88-18.65L108.88-18.65Q108.68-18.9 108.41-19.07 108.14-19.24 107.9-19.38L107.9-19.38Q107.75-19.63 107.58-19.8 107.41-19.97 107.17-20.07L107.17-20.07Q106.78-20.41 106.66-20.63 106.53-20.85 106.24-20.9L106.24-20.9Q106.14-21.14 105.92-21.29 105.7-21.44 105.46-21.63L105.46-21.63Q105.36-21.92 105.17-22.12L105.17-22.12Q105.12-22.51 105.21-22.68 105.31-22.85 105.36-22.95L105.36-22.95Q105.31-23.24 105.09-23.39 104.87-23.54 104.87-23.88L104.87-23.88Q104.87-24.07 104.99-24.15 105.12-24.22 105.17-24.37L105.17-24.37 105.31-25.1Q105.7-25.39 105.97-25.81 106.24-26.22 106.68-26.46L106.68-26.46Q107.17-27.2 107.9-27.69L107.9-27.69Q108.14-28.08 108.51-28.32 108.88-28.56 109.12-28.96L109.12-28.96Q109.51-29.2 109.78-29.49 110.05-29.79 110.44-30.03L110.44-30.03Q110.54-30.22 110.66-30.35 110.78-30.47 110.83-30.62L110.83-30.62Q112.15-31.88 113.15-32.81 114.15-33.74 115.22-34.67L115.22-34.67Q115.52-34.91 115.81-35.21 116.1-35.5 116.45-35.74L116.45-35.74Q116.54-35.84 116.69-35.84 116.84-35.84 116.98-35.94L116.98-35.94Q117.57-35.94 117.62-35.99Z" opacity="1" transform="matrix(1,0,0,1,0,0)" fill="#ffffff" class="undefined-text-0" data-fill-palette-color="quaternary" id="text-0"></path></svg></g></svg></g></svg></g></svg></g><g transform="matrix(1,0,0,1,46.909797469493355,0)"><svg viewBox="0 0 119.3388462881704 96.72998029711833" height="96.72998029711833" width="119.3388462881704"><g><svg xmlns:x="http://ns.adobe.com/Extensibility/1.0/" xmlns:i="http://ns.adobe.com/AdobeIllustrator/10.0/" xmlns:graph="http://ns.adobe.com/Graphs/1.0/" xmlns="http://www.w3.org/2000/svg" xmlns:xlink="http://www.w3.org/1999/xlink" version="1.1" x="0" y="0" viewBox="3.5 12.300000190734863 92.89999389648438 75.29999542236328" enable-background="new 0 0 100 100" xml:space="preserve" height="96.72998029711833" width="119.3388462881704" class="icon-icon-0" data-fill-palette-color="quaternary" id="icon-0"><path d="M10.7 87.6h78.5c4 0 7.2-3.2 7.2-7.2V19.5c0-4-3.2-7.2-7.2-7.2H10.7c-4 0-7.2 3.2-7.2 7.2v60.9C3.6 84.4 6.8 87.6 10.7 87.6zM89.3 82.6H10.7c-1.2 0-2.2-1-2.2-2.2V34.9h82.9v45.5C91.4 81.7 90.5 82.6 89.3 82.6zM10.7 17.4h78.5c1.2 0 2.2 1 2.2 2.2v10.4H8.6V19.5C8.6 18.3 9.5 17.4 10.7 17.4zM21.9 23.6c0-1.7 1.4-3 3-3s3 1.4 3 3c0 1.7-1.4 3-3 3S21.9 25.3 21.9 23.6zM31.9 23.6c0-1.7 1.4-3 3-3s3 1.4 3 3c0 1.7-1.4 3-3 3S31.9 25.3 31.9 23.6zM11.9 23.6c0-1.7 1.4-3 3-3 1.7 0 3 1.4 3 3 0 1.7-1.4 3-3 3C13.3 26.7 11.9 25.3 11.9 23.6zM85.4 74.7c0 1.4-1.1 2.5-2.5 2.5H17.1c-1.4 0-2.5-1.1-2.5-2.5s1.1-2.5 2.5-2.5h65.8C84.3 72.2 85.4 73.4 85.4 74.7zM85.4 64.2c0 1.4-1.1 2.5-2.5 2.5H34.4c-1.4 0-2.5-1.1-2.5-2.5s1.1-2.5 2.5-2.5h48.5C84.3 61.7 85.4 62.8 85.4 64.2zM85.4 53.7c0 1.4-1.1 2.5-2.5 2.5H17.1c-1.4 0-2.5-1.1-2.5-2.5s1.1-2.5 2.5-2.5h65.8C84.3 51.2 85.4 52.3 85.4 53.7zM85.4 43.1c0 1.4-1.1 2.5-2.5 2.5H50c-1.4 0-2.5-1.1-2.5-2.5s1.1-2.5 2.5-2.5h32.9C84.3 40.6 85.4 41.7 85.4 43.1z" fill="#ffffff" data-fill-palette-color="quaternary"></path></svg></g></svg></g><g></g></svg></g></svg></g></svg></g></svg></g><defs></defs></svg><rect width="342.85155851775386" height="342.85155851775386" fill="none" stroke="none" visibility="hidden"></rect></g></svg></g></svg>